<?xml version="1.0" encoding="utf-8"?>
<!-- Generator: Adobe Illustrator 24.3.0, SVG Export Plug-In . SVG Version: 6.00 Build 0)  -->
<svg version="1.1" id="Layer_1" xmlns="http://www.w3.org/2000/svg" xmlns:xlink="http://www.w3.org/1999/xlink" x="0px" y="0px"
	 viewBox="0 0 512 512" style="enable-background:new 0 0 512 512;" xml:space="preserve">
<style type="text/css">
	.st0{fill:#00E2DF;}
	.st1{fill:#00CCC2;}
	.st2{fill:#00FF79;}
	.st3{fill:#FFFFFF;}
	.st4{fill:#4B506D;}
	.st5{fill:#FCFDFF;}
	.st6{fill:#D9DADB;}
	.st7{fill:#272B3C;}
</style>
<g id="BULINE">
	<path class="st0" d="M513,253.1c0,139.8-115,253.1-256.8,253.1h-0.9c-7.3,0-14.5-0.3-21.7-1h-0.1C101,493.9-0.7,384.3-0.5,253.1
		C-0.5,113.3,114.4,0,256.2,0S513,113.3,513,253.1z"/>
</g>
<g id="Icons">
	<path class="st1" d="M436.5,328.2v0.7c-0.3,100.3-81,181.7-181.2,183.1h-0.2h-2.4c-6.4,0-12.8-0.3-19.2-1h-0.1
		c-63.2-6.7-118.4-45.4-146.2-102.6c-12-24.8-18.3-52-18.4-79.5c0-0.2,0-0.5,0-0.7c0-28.8,6.7-57.3,19.8-83
		c3.1-6.1,6.5-12.1,10.3-17.8c5.5-8.4,11.7-16.4,18.6-23.8c2.4-2.6,4.9-5.2,7.5-7.7c2.7-2.7,5.5-5.2,8.4-7.7s5.9-4.9,9.1-7.3
		c4.5-3.3,9.1-6.5,13.8-9.4c19.8-12.2,41.6-20.5,64.5-24.5l1.6-0.3c3.1-0.5,6.2-1,9.4-1.3c0.8-0.1,1.6-0.2,2.4-0.3
		c3.4-0.4,6.9-0.6,10.4-0.7c0.8,0,1.6-0.1,2.5-0.1c1.9-0.1,3.7-0.1,5.6-0.1s4,0,6,0.1l1.9,0.1C359,148.7,436.6,229.7,436.5,328.2z"
		/>
	<path class="st2" d="M501.5,328.9c-8.5,28.6-22,55.5-39.8,79.5H50.3c-17.8-24-31.3-50.9-39.8-79.5H501.5z"/>
	<path class="st3" d="M459.4,151.3c0-8.8-7.2-16-16-16c-2,0-4,0.4-5.8,1.1c-1.4-15.6-15.2-27.2-30.8-25.8
		c-9.4,0.8-17.7,6.2-22.3,14.5c-11.6-2-22.6,5.8-24.5,17.4s5.8,22.6,17.4,24.5c0.8,0.1,1.6,0.2,2.4,0.3v0.1h64.2
		C452.6,167,459.4,159.9,459.4,151.3z"/>
	<path class="st3" d="M86.6,219c-1.6,0-3.2,0.3-4.8,0.9c-1.1-12.9-12.5-22.4-25.3-21.2c-7.7,0.7-14.6,5.1-18.3,11.9
		c-1-0.2-2-0.3-3-0.3c-9.7-0.3-17.7,7.3-18,17s7.3,17.7,17,18v0.1h52.9c7.3-0.1,13.1-6.1,13-13.4C99.9,224.7,93.9,218.9,86.6,219
		C86.6,219,86.6,219,86.6,219z"/>
	<path class="st3" d="M368.6,256.1c-1.2,0-2.4,0.1-3.6,0.3c-7.6-13.7-24.9-18.6-38.6-11c-8.2,4.6-13.6,12.9-14.5,22.3
		c-8.2-3.2-17.5,0.9-20.7,9.1c-3.2,8.2,0.9,17.5,9.1,20.7c1.7,0.7,3.5,1,5.3,1.1h64.2v-0.1c11.7-0.6,20.7-10.6,20.1-22.4
		C389.3,264.9,379.9,256,368.6,256.1L368.6,256.1z"/>
	<path class="st4" d="M480.3,379.5C435.2,461.2,349.3,512,256,512h-0.9h-2.4c-6.4,0-12.8-0.3-19.2-1h-0.1
		c-84.9-7.6-160.5-56.8-201.7-131.5L480.3,379.5z"/>
	<path class="st5" d="M106.2,404.9h111.1c5.9,0,10.7,4.8,10.7,10.7l0,0c0,5.9-4.8,10.7-10.7,10.7H106.2c-5.9,0-10.7-4.8-10.7-10.7
		l0,0C95.5,409.7,100.3,404.9,106.2,404.9z"/>
	<path class="st5" d="M283.6,404.9h111.1c5.9,0,10.7,4.8,10.7,10.7l0,0c0,5.9-4.8,10.7-10.7,10.7H283.6c-5.9,0-10.7-4.8-10.7-10.7
		l0,0C272.9,409.7,277.7,404.9,283.6,404.9z"/>
	<path class="st6" d="M164.8,75l-30.2,16.3c-1.8,1-2.4,3.1-1.4,4.9c0.3,0.6,0.7,1,1.3,1.3l54,33.2l65.2-28.7l-86-27.2
		C166.6,74.5,165.6,74.6,164.8,75z"/>
	<path class="st6" d="M80.6,154.4L53,165.4c-2.2,0.9-2,3.8,0.4,5.1l54.5,32l60.1-18.2l-84.7-29.8C82.4,154.1,81.5,154.1,80.6,154.4
		L80.6,154.4z"/>
	<path class="st6" d="M260.6,175.4c-2.6,1-5.3,2-8,2.9c-78.5,28.1-147.8,35.3-154.7,16s51.2-57.7,129.7-85.8
		c3.2-1.2,6.4-2.3,9.6-3.4c33.3-11.7,62.5-20.3,87.6-23.3c2.5-0.3,5,0.1,7.2,1.3c5.2,2.6,9,8,13.4,9.2c1.1,0.3,2.2,0.4,3.3,0.1
		c22.5-5.2,21.4-2,26.1,3.5C387.4,111.1,334.9,147.6,260.6,175.4L260.6,175.4z"/>
	<path class="st5" d="M260.6,175.4c-75.1,25.7-139.8,31.7-146.4,13.1s47.9-55.5,123-83.4c33.3-11.7,62.5-20.3,87.6-23.3
		c2.5-0.3,5,0.1,7.2,1.3c5.2,2.6,9,8,13.4,9.2c1.1,0.3,2.2,0.4,3.3,0.1c22.5-5.2,21.4-2,26.1,3.5
		C387.4,111.1,334.9,147.6,260.6,175.4L260.6,175.4z"/>
	<path class="st6" d="M260.2,165l-38.1,81.7c-0.1,0.1-0.1,0.3-0.2,0.4c-0.4,0.7-1.1,1.2-1.9,1.5l-32.4,11.2
		c-1.9,0.6-3.9-0.3-4.6-2.2c-0.2-0.6-0.3-1.2-0.1-1.9l12.1-62.2l10.3-4.5L260.2,165z"/>
	<path class="st5" d="M260.2,165l-38.1,81.7c-0.1,0.1-0.1,0.3-0.2,0.4l-23.7,8.1c-1.9,0.7-4-0.4-4.7-2.3c-0.2-0.6-0.3-1.3-0.1-1.9
		l12-62L260.2,165z"/>
	<path class="st6" d="M156.8,155.2L156.8,155.2c3.8-1.4,8.1,0.6,9.5,4.4l2.2,6.1c1.4,3.8-0.6,8.1-4.4,9.4l0,0
		c-3.8,1.4-8.1-0.6-9.4-4.4l-2.2-6.1C151,160.8,153,156.6,156.8,155.2z"/>
	<path class="st6" d="M183.2,146.3L183.2,146.3c3.8-1.4,8.1,0.6,9.4,4.5l2.2,6.1c1.4,3.8-0.6,8.1-4.5,9.4l0,0
		c-3.8,1.4-8.1-0.6-9.4-4.5l-2.2-6.1C177.3,151.9,179.3,147.6,183.2,146.3z"/>
	<path class="st6" d="M211.7,136.1L211.7,136.1c3.8-1.4,8.1,0.6,9.4,4.5l2.2,6.1c1.4,3.8-0.6,8.1-4.5,9.4l0,0
		c-3.8,1.4-8.1-0.6-9.4-4.5l-2.2-6.1C205.9,141.7,207.9,137.4,211.7,136.1z"/>
	<path class="st6" d="M237.7,126.8L237.7,126.8c3.8-1.4,8.1,0.6,9.4,4.5l2.2,6.1c1.4,3.8-0.6,8.1-4.5,9.4l0,0
		c-3.8,1.4-8.1-0.6-9.4-4.5l-2.2-6.1C231.9,132.4,233.9,128.1,237.7,126.8z"/>
	<path class="st6" d="M263.5,117.5L263.5,117.5c3.8-1.4,8.1,0.6,9.4,4.5l2.2,6.1c1.4,3.8-0.6,8.1-4.5,9.4l0,0
		c-3.8,1.4-8.1-0.6-9.4-4.5l-2.2-6.1C257.7,123.1,259.7,118.9,263.5,117.5z"/>
	<g>
		<path class="st7" d="M159.4,154.8L159.4,154.8c3.8-1.4,8.1,0.6,9.4,4.5l2.2,6.1c1.4,3.8-0.6,8.1-4.5,9.4l0,0
			c-3.8,1.4-8.1-0.6-9.4-4.5l-2.2-6.1C153.6,160.4,155.6,156.2,159.4,154.8z"/>
		<path class="st7" d="M185.5,145.4L185.5,145.4c3.8-1.4,8.1,0.6,9.4,4.5l2.2,6.1c1.4,3.8-0.6,8.1-4.5,9.4l0,0
			c-3.8,1.4-8.1-0.6-9.4-4.5l-2.2-6.1C179.7,151,181.7,146.8,185.5,145.4z"/>
		<path class="st7" d="M213.9,135.3L213.9,135.3c3.8-1.4,8.1,0.6,9.4,4.5l2.2,6.1c1.4,3.8-0.6,8.1-4.5,9.4l0,0
			c-3.8,1.4-8.1-0.6-9.4-4.5l-2.2-6.1C208.1,140.9,210.1,136.6,213.9,135.3z"/>
		<path class="st7" d="M240.2,125.1L240.2,125.1c3.8-1.4,8.1,0.6,9.5,4.4l2.2,6.1c1.4,3.8-0.6,8.1-4.4,9.4l0,0
			c-3.8,1.4-8.1-0.6-9.4-4.4l-2.2-6.1C234.3,130.7,236.3,126.5,240.2,125.1z"/>
		<path class="st7" d="M266.2,115.6L266.2,115.6c3.8-1.4,8.1,0.6,9.5,4.4l2.2,6.1c1.4,3.8-0.6,8.1-4.4,9.4l0,0
			c-3.8,1.4-8.1-0.6-9.4-4.4l-2.2-6.1C260.4,121.3,262.4,117,266.2,115.6z"/>
		<path class="st7" d="M345.3,92.3l-19.8,7.1c-3.4,1.2-7.2-0.6-8.4-4c-1.2-3.4,0.6-7.2,4-8.4l10.9-3.9
			C337.2,85.7,340.9,91.1,345.3,92.3z"/>
	</g>
</g>
</svg>
