<?xml version="1.0" encoding="utf-8"?>
<!-- Generator: Adobe Illustrator 24.3.0, SVG Export Plug-In . SVG Version: 6.00 Build 0)  -->
<svg version="1.1" id="Capa_1" xmlns="http://www.w3.org/2000/svg" xmlns:xlink="http://www.w3.org/1999/xlink" x="0px" y="0px"
	 viewBox="0 0 272 272" style="enable-background:new 0 0 272 272;" xml:space="preserve">
<style type="text/css">
	.st0{fill:#C8E2ED;}
</style>
<g>
	<g>
		<path class="st0" d="M136,272c75.1,0,136-60.9,136-136S211.1,0,136,0S0,60.9,0,136S60.9,272,136,272z M136,21.8
			c63,0,114.2,51.2,114.2,114.2S199,250.2,136,250.2S21.8,199,21.8,136S73,21.8,136,21.8z"/>
		<path class="st0" d="M105,206.8c7.5,0,13.6-6.3,13.6-14.1V85.6c0-7.8-6.1-14.1-13.6-14.1c-7.5,0-13.6,6.3-13.6,14.1v107.1
			C91.4,200.5,97.5,206.8,105,206.8z"/>
		<path class="st0" d="M208.6,143.9c3.8-6.5,1.4-14.9-5.2-18.7l-90.9-52.5c-6.6-3.8-15-1.6-18.8,4.9S92.4,92.5,99,96.3l90.9,52.5
			C196.5,152.6,204.9,150.4,208.6,143.9z"/>
		<path class="st0" d="M207.5,130.4c-4-6.4-12.5-8.3-19-4.2L98.7,182c-6.5,4.1-8.6,12.5-4.6,18.9c4,6.4,12.5,8.3,19,4.2l89.9-55.8
			C209.4,145.2,211.5,136.8,207.5,130.4z"/>
	</g>
</g>
</svg>
