<?xml version="1.0" encoding="utf-8"?>
<!-- Generator: Adobe Illustrator 24.3.0, SVG Export Plug-In . SVG Version: 6.00 Build 0)  -->
<svg version="1.1" id="Capa_1" xmlns="http://www.w3.org/2000/svg" xmlns:xlink="http://www.w3.org/1999/xlink" x="0px" y="0px"
	 viewBox="0 0 512 512" style="enable-background:new 0 0 512 512;" xml:space="preserve">
<style type="text/css">
	.st0{fill:#00E2DF;}
	.st1{fill:#00CCC2;}
	.st2{fill:#EF4B37;}
	.st3{fill:#C64238;}
	.st4{fill:#5A5F64;}
	.st5{fill:#4B5055;}
	.st6{fill:#373C41;}
</style>
<g>
	<g>
		<g>
			<g>
				<g>
					<circle class="st0" cx="256" cy="256" r="256"/>
				</g>
			</g>
		</g>
	</g>
	<path class="st1" d="M309.6,294.9l-95.5-99.5l-80.2-80.2l-53.2,8.5l-9.6,9.6l94.4,94.4l28.7,90.1l-28.2,4.9l-11.6,50l136.8,136.8
		c124.1-17,219.8-122.9,220.9-251.4l-82.8-82.8L309.6,294.9z"/>
	<g>
		<path class="st2" d="M294.2,175.3H142.9L189.6,320h104.6l11.5-67.6L294.2,175.3z"/>
		<path class="st3" d="M294.2,320H394l35.1-144.7H294.2V320z"/>
		<path class="st4" d="M294.2,366.7H183.7c-10.1,0-18.3-8.2-18.3-18.3c0-10.1,8.2-18.3,18.3-18.3h22.1l-71.9-214.8h-24.2
			c-5.5,0-10,4.5-10,10s4.5,10,10,10h9.8l58.7,175.3c-18.5,2.6-32.8,18.6-32.8,37.9c0,21.1,17.2,38.2,38.2,38.2h110.5l10.4-10
			L294.2,366.7z"/>
		<path class="st4" d="M294.2,310.1H192c-5.5,0-10,4.5-10,10s4.5,10,10,10h102.2l10.4-10L294.2,310.1z"/>
		<g>
			<path class="st5" d="M396.4,310.1H294.2V330h102.2c5.5,0,10-4.5,10-10S401.9,310.1,396.4,310.1L396.4,310.1z"/>
			<path class="st5" d="M396.4,366.7H294.2v19.9h102.2c5.5,0,10-4.5,10-10C406.4,371.1,401.9,366.7,396.4,366.7L396.4,366.7z"/>
			<circle class="st5" cx="219.8" cy="376.6" r="34.5"/>
		</g>
		<circle class="st6" cx="379.1" cy="376.6" r="34.5"/>
		<circle class="st4" cx="219.8" cy="376.6" r="13.6"/>
		<circle class="st5" cx="379.1" cy="376.6" r="13.6"/>
		<g>
			<g>
				<path class="st0" d="M294.2,232.9h-13.3v-31.3h13.3l2.5,16.2L294.2,232.9z"/>
				<path class="st1" d="M294.2,201.5h13.3v31.3h-13.3V201.5z"/>
			</g>
			<g>
				<path class="st0" d="M294.2,288.5h-13.3v-31.3h13.3l2.5,16.2L294.2,288.5z"/>
				<path class="st1" d="M294.2,257.2h13.3v31.3h-13.3V257.2z"/>
			</g>
			<path class="st1" d="M335,201.5v31.3h26.6v-31.3L335,201.5z M335,288.5h26.6v-31.3H335V288.5z"/>
			<path class="st0" d="M226.7,201.5v31.3h26.6v-31.3L226.7,201.5z M226.7,288.5h26.6v-31.3h-26.6V288.5z"/>
		</g>
		<g>
			<g>
				<g>
					<path class="st2" d="M112.8,136.9H79.3c-6.5,0-11.7-5.2-11.7-11.7c0-6.5,5.2-11.7,11.7-11.7h33.5L112.8,136.9z"/>
				</g>
			</g>
		</g>
	</g>
</g>
</svg>
